<?xml version="1.0" encoding="UTF-8" standalone="no"?>
<!-- Created with Inkscape (http://www.inkscape.org/) -->

<svg
   xmlns:dc="http://purl.org/dc/elements/1.1/"
   xmlns:cc="http://creativecommons.org/ns#"
   xmlns:rdf="http://www.w3.org/1999/02/22-rdf-syntax-ns#"
   xmlns:svg="http://www.w3.org/2000/svg"
   xmlns="http://www.w3.org/2000/svg"
   xmlns:sodipodi="http://sodipodi.sourceforge.net/DTD/sodipodi-0.dtd"
   xmlns:inkscape="http://www.inkscape.org/namespaces/inkscape"
   width="120"
   height="30"
   id="svg3025"
   version="1.1"
   inkscape:version="0.48.2 r9819"
   sodipodi:docname="bright-controls.svg"
   inkscape:export-filename="./light-controls@2x.png"
   inkscape:export-xdpi="180"
   inkscape:export-ydpi="180">
  <defs
     id="defs3027" />
  <sodipodi:namedview
     id="base"
     pagecolor="#eeeeee"
     bordercolor="#666666"
     borderopacity="1.0"
     inkscape:pageopacity="0"
     inkscape:pageshadow="2"
     inkscape:zoom="1"
     inkscape:cx="33.933619"
     inkscape:cy="18.112473"
     inkscape:document-units="px"
     inkscape:current-layer="layer3"
     showgrid="false"
     inkscape:window-width="1110"
     inkscape:window-height="648"
     inkscape:window-x="93"
     inkscape:window-y="0"
     inkscape:window-maximized="0">
    <inkscape:grid
       type="xygrid"
       id="grid3033"
       empspacing="5"
       visible="true"
       enabled="true"
       snapvisiblegridlinesonly="true"
       color="#000000"
       opacity="0.0627451"
       empcolor="#000000"
       empopacity="0.1254902" />
  </sodipodi:namedview>
  <metadata
     id="metadata3030">
    <rdf:RDF>
      <cc:Work
         rdf:about="">
        <dc:format>image/svg+xml</dc:format>
        <dc:type
           rdf:resource="http://purl.org/dc/dcmitype/StillImage" />
        <dc:title></dc:title>
      </cc:Work>
    </rdf:RDF>
  </metadata>
  <g
     inkscape:groupmode="layer"
     id="layer3"
     inkscape:label="underlay"
     style="display:none">
    <rect
       style="color:#000000;fill:#3b3b3b;fill-opacity:1;fill-rule:nonzero;stroke:none;stroke-width:2;marker:none;visibility:visible;display:inline;overflow:visible;enable-background:accumulate"
       id="rect12776"
       width="120"
       height="30"
       x="0"
       y="0" />
  </g>
  <g
     inkscape:label="controls"
     inkscape:groupmode="layer"
     id="layer1"
     transform="translate(0,-1022.3622)">
    <path
       id="path2461-7"
       d="m 44.500014,1032.3622 c -0.277023,0 -0.500044,0.223 -0.499995,0.5 l -1.9e-5,3.5 -3.500018,0 c -0.276952,0 -0.499974,0.223 -0.499996,0.5 l 5e-6,1 c -2.2e-5,0.277 0.222978,0.5 0.5,0.5 l 3.500019,0 -1.9e-5,3.5 c -2.2e-5,0.277 0.222978,0.5 0.5,0.5 l 0.999995,0 c 0.277023,0 0.500044,-0.223 0.499995,-0.5 l 1.9e-5,-3.5 3.500018,0 c 0.276952,0 0.499974,-0.223 0.499996,-0.5 l -5e-6,-1 c 2.2e-5,-0.277 -0.222978,-0.5 -0.5,-0.5 l -3.500019,0 1.9e-5,-3.5 c 2.2e-5,-0.277 -0.222978,-0.5 -0.5,-0.5 l -0.999995,0 z"
       style="color:#000000;fill:#fefefe;fill-opacity:1;fill-rule:nonzero;stroke:none;stroke-width:0.99999994000000003;marker:none;visibility:visible;display:inline;overflow:visible;enable-background:accumulate"
       sodipodi:nodetypes="ccccccccccccccccccccc"
       inkscape:connector-curvature="0" />
    <path
       id="path2461-7-2"
       d="m 70.5,1036.3622 c -0.277,0 -0.5,0.223 -0.5,0.5 l 0,1 c 0,0.277 0.223,0.5 0.5,0.5 l 9,0 c 0.277,0 0.5,-0.223 0.5,-0.5 l 0,-1 c 0,-0.277 -0.223,-0.5 -0.5,-0.5 z"
       style="color:#000000;fill:#fefefe;fill-opacity:1;fill-rule:nonzero;stroke:none;stroke-width:0.99999994000000003;marker:none;visibility:visible;display:inline;overflow:visible;enable-background:accumulate"
       sodipodi:nodetypes="ccccccccc"
       inkscape:connector-curvature="0" />
    <path
       sodipodi:nodetypes="cccccccccccc"
       inkscape:connector-curvature="0"
       id="path6407"
       d="m 110,1032.3622 0,5 -0.48437,-0.4844 -1.51563,-1.5156 -5,5 2,2 -5,0 0,-5 2,2 5,-5 -2,-2 z"
       style="color:#000000;fill:#fefefe;fill-opacity:1;fill-rule:nonzero;stroke:none;stroke-width:0.99999994000000003;marker:none;visibility:visible;display:inline;overflow:visible;enable-background:accumulate" />
    <path
       inkscape:connector-curvature="0"
       sodipodi:nodetypes="ccccccccccccccccccccc"
       style="color:#000000;fill:#fefefe;fill-opacity:1;fill-rule:nonzero;stroke:none;stroke-width:0.99999994000000003;marker:none;visibility:visible;display:inline;overflow:visible;enable-background:accumulate"
       d="m 11,1033.8622 c -0.195885,0.1959 -0.195903,0.8042 0,1 l 2.5,2.5 -2.5,2.5 c -0.195835,0.1958 -0.195853,0.8041 0,1 l 0.5,0.5 c 0.195853,0.1959 0.804116,0.1959 1,0 l 2.500007,-2.5 2.499993,2.5 c 0.195853,0.1959 0.804116,0.1959 1,0 l 0.5,-0.5 c 0.195885,-0.1959 0.195903,-0.8042 0,-1 l -2.5,-2.5 2.5,-2.5 c 0.195835,-0.1958 0.195853,-0.8041 0,-1 l -0.5,-0.5 c -0.195853,-0.1959 -0.804116,-0.1959 -1,0 l -2.500007,2.5 -2.499993,-2.5 c -0.195853,-0.1959 -0.804116,-0.1959 -1,0 z"
       id="path12236" />
  </g>
</svg>
